# xmcd
#
# Track frame offsets:
#	150
#	21493
#	42035
#	57289
#	72880
#	97299
#	110632
#	131519
#	141022
#	152778
#	164819
#	184620
#	213247
#	223027
#
# Disc length: 3319 seconds
#
# Revision: 1
# Processed by: cddbd v1.5.2PL0 Copyright (c) Steve Scherf et al.
# Submitted via: audiograbber 1.83.01
#
DISCID=d50cf50e
DTITLE=Various Artist - Blues - the greatest moments ever
DYEAR=2002
DGENRE=Blues
TTITLE0=Buddy Guy - She's a Superstar
TTITLE1=John Mayall and The Bluesbreakers - Mail Order Mystics
TTITLE2=Canned Heat - On The Road Again
TTITLE3=Anders Osborne - Right On The Money
TTITLE4=Albert King - Born Under a Bad Sign
TTITLE5=The All Stars (Feat Nicky Hopkins) - Piano Shuffle
TTITLE6=The Bondi Cigars - Ain't No Big Deal On you
TTITLE7=Eric Clapton - Tribute To Elmore
TTITLE8=The Yardbirds - I'm A Man
TTITLE9=Sue Foley - Let Me Drive
TTITLE10=Terry Evans - Natcha Bone Lover
TTITLE11=Jeff Beck - Brush With The Blues
TTITLE12=John Mayall and The Bluesbreakers - I'm Your Witchdoctor
TTITLE13=George Thorogood - One Bourbon, One Scotch, One Beer
EXTD=YEAR: 2002
EXTT0=
EXTT1=
EXTT2=
EXTT3=
EXTT4=
EXTT5=
EXTT6=
EXTT7=
EXTT8=
EXTT9=
EXTT10=
EXTT11=
EXTT12=
EXTT13=
PLAYORDER=
